<svg width="317" height="48" viewBox="0 0 317 48" fill="none" xmlns="http://www.w3.org/2000/svg" svg-inline="" role="presentation" focusable="false" tabindex="-1" class="signup-logo"><path data-v-b433db8c="" d="M13.031 23.745L6.656 9.6H0l9.547 21.486c.042.093.174.093.214 0l3.27-7.34zM26.933 9.6s-8.635 19.478-9.715 21.862c-2.582 5.697-4.495 7.123-6.444 7.428a.037.037 0 00-.032.038c0 .02.016.037.037.037h6.097c2.683 0 4.519-1.805 7.105-7.503.904-1.99 9.725-21.862 9.725-21.862h-6.773zM68.855 16.94c-4.308 0-7.078 2.79-7.078 7.341s2.77 7.341 7.078 7.341c4.298 0 7.076-2.79 7.076-7.34.002-4.551-2.778-7.341-7.076-7.341zm0 12.363c-2.75 0-4.55-1.79-4.55-5.021 0-3.232 1.8-5.022 4.55-5.022 2.74 0 4.55 1.79 4.55 5.021 0 3.232-1.81 5.022-4.55 5.022zM90.543 17.265v14.037h-2.915l-6.94-10.285v10.285h-2.486V17.265h2.925l6.94 10.355V17.265h2.476zM133.527 19.614v-2.349h-10.091V31.3h10.091V28.95h-7.606v-3.69h7.013v-2.349h-7.013v-3.298h7.606zM58.657 17.265l-5.03 11.045c-.026.058-.107.058-.134 0l-5.03-11.045H45.62l5.302 11.696c.776 1.712 1.417 2.501 2.638 2.501 1.22 0 1.862-.79 2.637-2.5L61.5 17.264h-2.843zM102.116 19.618c-.752-1.721-1.316-2.501-2.485-2.501-1.17 0-1.734.777-2.485 2.5-.366.838-5.082 11.697-5.082 11.697h2.622l1.452-3.4h6.983l1.452 3.4h2.622c.002 0-4.715-10.86-5.079-11.696zm-4.97 5.94l2.418-5.68a.073.073 0 01.134 0l2.418 5.68h-4.97zM114.071 23.686v2.127h4.213c-.186 1.886-1.991 3.465-4.126 3.465-2.525 0-4.359-1.846-4.359-4.896v-.004c0-3.171 1.696-5.118 4.587-5.118 1.723 0 3.144.825 3.617 2.253h2.572c-.556-2.869-3.109-4.572-6.189-4.572-4.395 0-7.112 2.877-7.112 7.497 0 4.483 2.97 7.184 6.672 7.184 3.178 0 4.387-1.85 4.723-2.441V31.3h2.203v-7.616h-6.801v.002z" fill="#131415"></path><path data-v-b433db8c="" d="M154.315 9.784v29.371" stroke="#131415" stroke-width="1.843" stroke-miterlimit="10"></path><path data-v-b433db8c="" d="M179.701 20.675v8.668h-1.021l-4.51-7.327v7.327h-.858v-8.668h1.021l4.509 7.344v-7.344h.859zM187.212 26.424h-4.624c.029 1.324.682 2.268 2.006 2.268.98 0 1.571-.514 1.856-1.215l.683.327c-.424.955-1.257 1.638-2.58 1.638-1.862 0-2.786-1.324-2.786-3.227 0-2.044 1.076-3.324 2.847-3.324 1.559 0 2.6 1.003 2.6 2.774v.76h-.002zm-4.612-.708h3.771v-.12c0-1.324-.706-1.96-1.783-1.96-1.233 0-1.891.883-1.988 2.08zM192.922 29.343l-1.794-2.642-1.795 2.642h-1.015l2.297-3.253-2.176-3.083h1.009l1.68 2.48 1.679-2.48h1.004l-2.177 3.083 2.297 3.253h-1.009zM196.286 23.01v1.178c.356-.834 1.033-1.3 2.012-1.3 1.021 0 1.644.515 1.868 1.488.362-.935 1.082-1.488 2.212-1.488 1.371 0 2.109.804 2.109 2.153v4.304h-.829v-3.942c0-1.135-.508-1.74-1.468-1.74-1.13 0-1.802.846-1.802 2.037v3.645h-.835v-3.942c0-1.13-.483-1.74-1.451-1.74-1.135 0-1.82.84-1.82 2.037v3.645h-.829v-6.336h.833zM212.089 26.163c0 2.044-1.1 3.277-2.859 3.277s-2.853-1.233-2.853-3.277c0-2.038 1.094-3.276 2.853-3.276 1.759 0 2.859 1.24 2.859 3.276zm-4.885 0c0 1.627.762 2.527 2.026 2.527 1.268 0 2.032-.9 2.032-2.527 0-1.62-.762-2.526-2.032-2.526-1.264 0-2.026.908-2.026 2.526zM218.164 21.872h-.95V20.65h.95v1.22zm-.062 7.471h-.827v-6.336h.827v6.336zM224.193 24.768c-.224-.756-.786-1.167-1.712-1.167-.95 0-1.482.423-1.482 1.076 0 .83.859.974 1.795 1.13 1.076.176 2.261.368 2.261 1.686 0 1.167-.93 1.947-2.35 1.947-1.3 0-2.351-.653-2.654-1.844l.78-.23c.235.95.991 1.366 1.886 1.366.943 0 1.517-.46 1.517-1.124 0-.821-.876-.968-1.814-1.136-1.077-.194-2.242-.412-2.242-1.718 0-1.179.936-1.867 2.333-1.867 1.397 0 2.176.682 2.424 1.656l-.742.225zM231.072 23.01v1.202c.382-.835 1.077-1.323 2.141-1.323 1.409 0 2.165.852 2.165 2.2v4.256h-.829v-3.953c0-1.095-.503-1.73-1.524-1.73-1.226 0-1.953.912-1.953 2.092v3.59h-.829V23.01h.829zM242.976 26.163c0 2.044-1.1 3.277-2.859 3.277s-2.853-1.233-2.853-3.277c0-2.038 1.094-3.276 2.853-3.276 1.759 0 2.859 1.24 2.859 3.276zm-4.883 0c0 1.627.761 2.527 2.024 2.527 1.27 0 2.032-.9 2.032-2.527 0-1.62-.762-2.526-2.032-2.526-1.263 0-2.024.908-2.024 2.526zM252.839 23.01l-1.885 6.335h-.871l-1.62-5.127-1.621 5.127h-.876l-1.886-6.336h.871l1.468 5.339 1.602-5.339h.877l1.603 5.339 1.468-5.339h.87zM264.112 20.675l-3.186 8.668h-.991l-3.18-8.668h.912l2.769 7.623 2.756-7.623h.92zM270.685 26.163c0 2.044-1.1 3.277-2.859 3.277s-2.853-1.233-2.853-3.277c0-2.038 1.094-3.276 2.853-3.276 1.759 0 2.859 1.24 2.859 3.276zm-4.883 0c0 1.627.761 2.527 2.026 2.527 1.268 0 2.032-.9 2.032-2.527 0-1.62-.762-2.526-2.032-2.526-1.265 0-2.026.908-2.026 2.526zM273.463 23.01v1.202c.382-.835 1.076-1.323 2.141-1.323 1.409 0 2.165.852 2.165 2.2v4.256h-.828v-3.953c0-1.095-.502-1.73-1.523-1.73-1.227 0-1.953.912-1.953 2.092v3.59h-.827V23.01h.825zM284.848 24.81v4.533h-.823v-1.154c-.526.936-1.433 1.25-2.333 1.25-1.306 0-2.038-.682-2.038-1.806 0-1.559 1.397-1.723 2.574-1.873 1.004-.133 1.789-.254 1.789-1.047 0-.641-.514-1.076-1.523-1.076-1.016 0-1.668.447-1.936 1.232l-.791-.235c.356-1.077 1.3-1.747 2.738-1.747 1.473 0 2.343.696 2.343 1.923zm-.827 2.044v-.924c-.417.285-1.082.394-1.747.489-.938.132-1.789.24-1.789 1.19 0 .756.532 1.083 1.365 1.083 1.209-.002 2.171-.679 2.171-1.838zM292.412 29.137c0 1.5-1.1 2.527-2.797 2.527-1.451 0-2.442-.756-2.763-1.85l.792-.224c.247.835.938 1.324 1.977 1.324 1.226 0 1.958-.677 1.958-1.759v-1.597c-.387.968-1.179 1.354-2.152 1.354-1.777 0-2.689-1.288-2.689-3.024 0-1.711.894-3.003 2.695-3.003.943 0 1.741.35 2.146 1.33v-1.21h.835v6.132h-.002zm-4.847-3.239c0 1.365.762 2.274 2.006 2.274 1.251 0 2.006-.907 2.006-2.274 0-1.36-.755-2.261-2.006-2.261-1.256 0-2.006.908-2.006 2.261zM299.743 26.424h-4.624c.03 1.324.683 2.268 2.007 2.268.979 0 1.571-.514 1.856-1.215l.682.327c-.423.955-1.256 1.638-2.58 1.638-1.862 0-2.786-1.324-2.786-3.227 0-2.044 1.076-3.324 2.847-3.324 1.56 0 2.6 1.003 2.6 2.774v.76h-.002zm-4.612-.708h3.771v-.12c0-1.324-.708-1.96-1.782-1.96-1.235 0-1.894.883-1.989 2.08z" fill="#131415"></path></svg>